<?xml version="1.0" encoding="UTF-8"?>
<svg width="752pt" height="752pt" version="1.1" viewBox="0 0 752 752" xmlns="http://www.w3.org/2000/svg">
 <g>
  <path d="m329.12 230.14c32.203 0 58.723 26.047 58.723 58.25s-26.047 58.723-58.25 58.723-58.723-26.047-58.723-58.25c-0.47266-32.199 25.574-58.723 58.25-58.723zm35.043 23.207c8.0508 17.051 11.367 33.625 10.891 52.094 6.6328-16.574 1.4258-40.727-10.891-52.094z"/>
  <path d="m501.03 399.21c0 28.414-23.68 51.148-52.094 50.672-27.941-0.47266-50.672-23.207-50.199-51.621 0-28.414 23.68-51.148 52.094-50.672 27.941 0 50.672 23.207 50.199 51.621zm-9.9453 10.891c4.7344-11.367 0.47266-32.203-7.5781-39.309 2.3672 12.316 5.2109 26.523 7.5781 39.309z"/>
  <path d="m496.77 264.71c0 12.785-10.418 23.68-23.207 23.68-12.785 0-23.207-10.418-23.207-23.207 0-12.785 10.418-23.68 23.207-23.68 12.312 0 22.73 10.418 23.207 23.207z"/>
  <path d="m361.79 514.29c-12.785 0-23.207-10.891-23.207-23.68 0-12.785 10.891-22.73 23.207-22.73 12.785 0 23.207 10.891 23.207 23.68 0 12.789-10.418 22.73-23.207 22.73z"/>
  <path d="m271.34 216.88c5.6836 0 9.9453 4.2617 9.9453 9.9453 0 5.6836-4.7344 10.418-10.418 10.418-5.6836 0-9.9453-4.7344-9.9453-10.418 0.47266-5.6836 5.207-9.9453 10.418-9.9453z"/>
  <path d="m426.2 536.07c0 5.6836-4.7344 9.9453-10.418 9.9453s-10.418-4.7344-9.9453-10.418c0.47266-5.6836 4.7344-9.9453 10.418-9.4727 5.6836 0 9.9453 4.7383 9.9453 9.9453z"/>
 </g>
</svg>
