<?xml version="1.0" encoding="UTF-8"?>
<svg width="552pt" height="552pt" version="1.1" viewBox="0 0 752 752" xmlns="http://www.w3.org/2000/svg">
 <path d="m520.11 359.65c0.042969-5.0039-2.6367-9.2227-5-12.949-1.5156-2.3906-2.9453-4.6445-3.3711-6.6055-0.44141-2.0273-0.070313-4.7148 0.32812-7.5625 0.59375-4.3203 1.2734-9.2148-0.76172-13.672-1.9883-4.3633-6.0469-7.0469-9.6289-9.4141-2.4453-1.6211-4.7578-3.1484-6.0039-4.8789-1.1836-1.6406-1.8633-4.2852-2.5781-7.082-1.0742-4.1641-2.2891-8.8828-5.7578-12.27-3.3086-3.2422-7.918-4.3555-11.98-5.3477-2.9258-0.70703-5.6836-1.3789-7.457-2.6367-1.6484-1.1836-3.125-3.5195-4.6875-6-2.2578-3.5781-4.8086-7.6289-9.0391-9.8281-3.125-1.625-6.5234-1.832-9.1406-1.832-1.2031 0-2.4453 0.046875-3.6836 0.10547-1.1172 0.046874-2.2383 0.10156-3.3359 0.10156-2.0508 0-3.5195-0.1875-4.6289-0.59375-1.9141-0.70703-3.9609-2.5977-6.125-4.6133-3.0664-2.8477-6.5391-6.0742-11.117-7.1367-1.0664-0.25391-2.2109-0.375-3.3906-0.375-3.25 0-6.3789 0.92188-9.4102 1.8164-2.9219 0.86328-5.5898 1.6875-7.8711 1.4297-2.0312-0.22656-4.4727-1.6094-7.0547-3.0664-3.6211-2.0508-7.7344-4.3789-12.414-4.3789-4.6797 0-8.7773 2.3242-12.398 4.3789-2.5781 1.4609-5.0156 2.8477-7.0391 3.0664-2.2734 0.26172-4.9414-0.56641-7.8555-1.4297-3.0195-0.89062-6.1445-1.8164-9.3945-1.8164-1.1797 0-2.3203 0.125-3.3906 0.37891-4.582 1.0742-8.0469 4.3008-11.109 7.1523-2.1523 2.0117-4.1953 3.9102-6.1094 4.6133-1.1211 0.41016-2.6133 0.60547-4.6992 0.60547-1.0742 0-2.168-0.042969-3.25-0.089844-1.2031-0.050781-2.4102-0.10156-3.5898-0.10156-2.6484 0-6.0898 0.21094-9.2305 1.8594-4.2148 2.2148-6.75 6.2656-8.9883 9.8516-1.5508 2.4766-3.0156 4.8203-4.6562 6.0039-1.7617 1.2695-4.5156 1.9453-7.4336 2.6562-4.0586 0.99609-8.6562 2.125-11.957 5.3711-3.4453 3.3945-4.6445 8.1016-5.6992 12.262-0.71094 2.8008-1.3828 5.4414-2.5586 7.0898-1.2305 1.7188-3.5469 3.25-6 4.8672-3.5742 2.3633-7.625 5.0352-9.6172 9.375-2.043 4.4375-1.3906 9.3125-0.81641 13.613 0.37891 2.8516 0.74219 5.5508 0.28906 7.5625-0.44922 1.9609-1.9102 4.2109-3.457 6.582-2.3984 3.6797-5.1133 7.8398-5.1523 12.809-0.14062 17.703 23.168 50.68 49.91 80.098-1.2422 28.863 10.141 52.551 10.641 53.566 0.4375 0.89062 1.1523 1.6172 2.0352 2.0586 8.125 4.0586 23.23 5.0352 35.922 5.0352 8.7891 0 16.402-0.46875 19.754-0.71484 9.4336 5.7109 18.512 9.5625 25.82 9.5625 7.0391 0 16.012-3.6562 25.891-9.6289 2.6406 0.20703 10.961 0.77734 20.715 0.77734 12.688 0 27.785-0.98047 35.902-5.0352 0.88281-0.44922 1.6055-1.168 2.0352-2.0508 0.50391-1.0312 12.246-25.406 10.594-54.848 24.18-26.883 48.852-60.508 49.004-78.691zm-73.461 91.148c-1.5625-1.0352-3.1367-2.0508-4.7305-3.0156 31.41-38.746 55.773-81.062 64.797-97.488 0.25781 0.41406 0.51562 0.83594 0.77344 1.2422 1.8633 2.9375 3.6133 5.7031 3.5977 8.0391-0.14062 17.965-31.207 58.34-64.438 91.223zm50.059-133.81c2.8164 1.8633 5.4766 3.6211 6.3945 5.6289 0.94531 2.0742 0.50391 5.2812 0.03125 8.6758-0.34766 2.5273-0.69531 5.1211-0.57422 7.707-0.011719 0.027344-0.027344 0.042969-0.042969 0.0625-0.28906 0.55078-28.848 55.555-68.602 104.26-1.8203-0.92969-3.6562-1.8359-5.5195-2.6719 28.172-48.758 56.344-108.75 64.48-126.35 1.2461 0.95312 2.543 1.832 3.832 2.6836zm-23.477-28.336c3.2188 0.77734 6.2578 1.5195 7.7969 3.0312 1.668 1.6328 2.4727 4.75 3.3242 8.0625 0.58594 2.2773 1.2148 4.5938 2.1719 6.7734-4.168 9.1094-35.488 77.078-66.562 130.7-2-0.73828-4.0156-1.4141-6.0391-2.043 23.02-58.582 45.316-129.25 51.453-149.03 2.5586 1.2109 5.3242 1.8945 7.8555 2.5039zm-31.492-19.949c1.1055-0.046875 2.2109-0.09375 3.293-0.09375 2.3555 0 3.8945 0.25391 4.9727 0.80859 2.0664 1.0781 3.7695 3.7773 5.5781 6.6406 0.75391 1.1953 1.5312 2.3906 2.3633 3.5508-3.543 11.523-27.672 89.344-52.594 152.68-0.070312 0.16406-0.10156 0.33203-0.13672 0.50391-1.5195-0.35937-3.0469-0.6875-4.582-0.98828l34.051-163.18c1.0195 0.10938 2.1055 0.18359 3.3359 0.18359 1.2305 0.003906 2.4727-0.046875 3.7188-0.10547zm-35.836-11.164c3.168-0.9375 6.1953-1.7734 8.1836-1.3086 2.2539 0.52734 4.5742 2.6836 7.0312 4.9609 1.5898 1.4727 3.2305 2.9453 5.0234 4.2109l-34.434 165c-1.6172-0.19531-3.2305-0.35938-4.8555-0.5 1.3984-18.379 2.1055-29.984 2.9883-44.547 1.3477-22.168 3.1836-52.426 8.7031-126.16 2.5195-0.28906 4.9922-0.96484 7.3594-1.6562zm-37.848-2.4492c2.9062-1.6406 5.6523-3.1992 7.9453-3.1992 2.3047 0 5.0586 1.5508 7.9648 3.2031 1.8164 1.0273 3.6719 2.0469 5.6211 2.8477-5.5625 74.215-7.4102 104.6-8.7578 126.87-0.89453 14.586-1.6016 26.062-3.0117 44.523-0.60156-0.011719-1.1992-0.17188-1.793-0.17188h-0.035156c-0.80078 0-1.5938 0.16797-2.3906 0.18359-1.4102-18.422-2.1172-29.938-3-44.5-1.3516-22.23-3.1992-52.543-8.7578-126.71 2.1719-0.82812 4.2188-1.9062 6.2148-3.0391zm-30.066 1.1445c1.9609-0.47266 5 0.36719 8.1602 1.3047 2.168 0.64063 4.4219 1.2539 6.7188 1.582 5.5352 73.898 7.3789 104.16 8.7227 126.34 0.88281 14.551 1.5898 26.137 2.9922 44.5-1.625 0.14062-3.2422 0.32031-4.8516 0.52734l-34.352-164.67c2.0273-1.3438 3.8398-2.9766 5.5977-4.6133 2.4531-2.2852 4.7695-4.4453 7.0117-4.9688zm-41.375 19.883c1.7891-2.8555 3.4766-5.5625 5.5234-6.6406 1.0898-0.56641 2.6484-0.82031 5.0391-0.82031 1.0586 0 2.1367 0.046875 3.2188 0.089844 1.2109 0.050781 2.4258 0.10156 3.6211 0.10156 0.82422 0 1.7695-0.042968 2.7461-0.11719l34.051 163.21c-1.5312 0.30469-3.0508 0.63281-4.5625 0.99609-0.050782-0.21484-0.10156-0.42578-0.17969-0.63672-24.379-61.945-48.012-137.79-52.348-151.86 1.0469-1.3945 1.9805-2.8633 2.8906-4.3164zm-25.371 15.691c1.5312-1.5117 4.5664-2.2539 7.7773-3.043 2.3047-0.56641 4.793-1.2148 7.1562-2.2422 6.3047 20.312 28.5 90.574 51.398 148.81-2.0195 0.63672-4.0273 1.3359-6.0156 2.0781-0.027344-0.050781-0.042969-0.10547-0.074219-0.15234-30.062-51.852-60.352-117.15-66.09-129.64 1.2148-2.457 1.8945-5.1406 2.5625-7.7578 0.83984-3.3047 1.6328-6.4219 3.2852-8.0469zm-22.004 30.926c0.92188-2 3.5742-3.75 6.3867-5.6094 1.0742-0.71094 2.1523-1.4414 3.2031-2.2148 8.5 18.359 36.422 77.703 64.332 125.96-1.8477 0.84375-3.668 1.7422-5.4766 2.6797-36.543-44.73-63.688-94.875-68.117-103.23 0.34375-3-0.011719-6.0039-0.40625-8.9258-0.4375-3.3945-0.86719-6.5938 0.078125-8.6562zm-4.625 28.914c0.15234-0.23047 0.30469-0.47266 0.45703-0.71094 9.3281 16.922 33.555 58.793 64.633 97.086-1.543 0.94141-3.0625 1.9219-4.5664 2.9297-0.78906-0.78906-1.5781-1.5508-2.375-2.3516-35.375-35.66-61.961-73.922-61.84-88.996 0.023437-2.3281 1.8086-5.0586 3.6914-7.957zm55.289 136.14c-2.0117-4.6133-8.0039-19.816-9.0234-38.461 1.8242 1.8984 3.6562 3.7852 5.4844 5.6211 1.4102 1.4219 3.2109 3.2109 5.3086 5.25 0.003906 0.003906 0.011719 0.015625 0.019531 0.019531 8.4453 8.2148 21.902 20.633 35.914 30.91-12.82 0.32812-29.465-0.09375-37.703-3.3398zm11.855-30.391c19.18-12.402 41.27-18.941 64.238-18.941h0.03125c22.867 0 44.863 6.4844 63.98 18.781-25.422 24.18-50.988 42.863-64.023 42.871-12.133 0-36.73-16.504-64.227-42.711zm141.32 30.391c-8.457 3.332-25.773 3.6875-38.719 3.3164 11.852-8.6875 24.328-19.668 35.957-31.039 0.050781-0.042968 0.10156-0.09375 0.14844-0.14062 4.0273-3.9375 7.9453-7.9258 11.703-11.871-0.80859 19.168-7.0391 35.008-9.0898 39.734z"/>
</svg>
